<svg version="1.1" id="Layer_1" xmlns="http://www.w3.org/2000/svg" xmlns:xlink="http://www.w3.org/1999/xlink" x="0px" y="0px"
	 viewBox="0 0 124.8 51.5" style="enable-background:new 0 0 124.8 51.5;" xml:space="preserve">

<g id="XMLID_1_">
	<path id="r" class="st0" d="M7.2,10.6c0-0.5,0.4-0.9,1-0.9h15c6,0,10.9,4.9,10.9,10.8c0,4.6-3.1,8.3-7.4,10.1l6.9,12.7
		c0.4,0.6,0,1.5-0.9,1.5H26c-0.4,0-0.7-0.2-0.8-0.5L18.5,31h-3.5v12.8c0,0.5-0.5,1-1,1h-6c-0.6,0-1-0.5-1-1V10.6z M22.5,24.6
		c2.1,0,3.8-1.9,3.8-4s-1.8-3.8-3.8-3.8h-7.4v7.8H22.5z"/>
	<path id="o" class="st0" d="M46.2,24.2c5.7,0,10.4,4.8,10.4,10.5c0,5.8-4.7,10.6-10.4,10.6s-10.4-4.8-10.4-10.6
		C35.8,29,40.5,24.2,46.2,24.2z M46.2,38.7c2.2,0,4-1.9,4-4.1c0-2.2-1.8-4-4-4s-4,1.8-4,4C42.2,36.9,44,38.7,46.2,38.7z"/>
	<path id="b" class="st0" d="M60.4,10.6c0-0.5,0.5-0.9,1-0.9h5.6c0.5,0,0.9,0.4,0.9,0.9v14.5c0.6-0.4,2.5-1,4.2-1
		c5.4,0,10,3.5,10,10.5c0,5.8-4.3,10.5-9.9,10.5c-4.4,0-6.7-3.2-6.7-3.2l-0.6,1.7c-0.2,0.5-0.5,1-1,1h-2.4c-0.5,0-1-0.5-1-1V10.6z
		 M71.1,38.7c2.3,0,4.1-1.8,4.1-4.1c0-2.2-1.8-4-4.1-4c-2.3,0-4,1.8-4,4C67.1,36.9,68.8,38.7,71.1,38.7z"/>
	<path id="i" class="st0" d="M85.6,14.7c0-2.2,1.8-4,4-4c2.2,0,4,1.8,4,4s-1.8,4-4,4C87.4,18.6,85.6,16.9,85.6,14.7z M85.9,25.6
		c0-0.5,0.5-1,1-1h5.5c0.5,0,1,0.4,1,1v18.1c0,0.5-0.5,1-1,1h-5.5c-0.5,0-1-0.5-1-1V25.6z"/>
	<path id="n" class="st0" d="M98.7,25.6c0-0.5,0.5-1,1-1h2.4c0.3,0,0.8,0.3,0.9,0.6l0.8,2c1.1-1.2,3.4-3.1,7.1-3.1
		c6.2,0,9.5,4.8,9.5,10.5v9.1c0,0.5-0.5,1-1,1H114c-0.6,0-1-0.5-1-1v-9.4c0-2-1.1-3.8-3.4-3.8c-2,0-3.8,1.5-3.8,3.5v9.6
		c0,0.5-0.2,1-0.9,1h-5.2c-0.5,0-1-0.5-1-1V25.6z"/>
</g>
</svg>
